<svg xmlns="http://www.w3.org/2000/svg" width="109.257" height="100.651" viewBox="0 0 109.257 100.651"><defs><style>.a{fill:#fff;}</style></defs><path class="a" d="M677.462,137.586a31.91,31.91,0,0,0-10.55,4.454,139.04,139.04,0,0,0-34.039,31.118q-1.034,1.327-2.042,2.688c-5.348,7.216-10.471,16.6-9.409,26.809,1.363,13.085,11.763,19.984,20.868,24.124,13.363,6.076,27.224,11.137,41.289,10.565a46.663,46.663,0,0,0,28.825-11.417,49.09,49.09,0,0,0,9.024-10.491c9.349-14.5,12.361-37.37,4.953-53.864a39.619,39.619,0,0,0-21.925-20.911C695.854,137.335,686.4,135.581,677.462,137.586Z" transform="translate(-621.282 -136.737)"/></svg>